<svg width="728" height="610" viewBox="0 0 728 610" fill="none" xmlns="http://www.w3.org/2000/svg">
<g id="social">
<path id="Vector" opacity="0.1" d="M426.41 95.8311C382.56 93.9764 340.797 76.7564 300.918 57.9125C261.038 39.0686 221.538 18.1886 178.711 8.20615C151.21 1.78471 119.725 0.877962 97.5421 18.8234C76.1998 36.134 69.3025 65.9331 65.5964 93.6055C62.805 114.436 61.1653 136.346 68.8079 155.841C74.1198 169.377 83.5375 180.752 90.0554 193.76C112.732 238.867 96.702 294.492 72.1346 338.535C60.6165 359.192 47.2352 378.927 38.3392 400.903C29.4432 422.879 25.3306 448.095 33.1154 470.525C40.8258 492.781 59.2073 509.466 79.12 521.22C119.562 545.076 167.199 551.91 213.685 555.776C316.555 564.34 419.967 560.631 523.108 556.922C561.28 555.545 599.615 554.152 637.164 546.972C658.019 542.982 679.544 536.652 694.68 521.418C713.902 502.022 718.665 469.173 705.785 444.856C684.185 404.06 624.481 393.921 609.365 350.141C601.058 326.047 609.589 299.199 621.669 276.851C647.578 228.901 691.001 186.844 693.284 132.035C694.856 94.3968 673.981 56.7008 641.704 38.8873C607.874 20.2165 560.955 22.5658 536.008 53.4694C510.296 85.2222 465.132 97.4633 426.41 95.8311Z" fill="#A010E3"/>
<g id="mobile layout" opacity="0.9">
<path id="Vector_2" opacity="0.9" d="M474.661 188.29H471.82C470.98 188.29 470.299 189.066 470.299 190.023V241.822C470.299 242.779 470.98 243.555 471.82 243.555H474.661C475.501 243.555 476.182 242.779 476.182 241.822V190.023C476.182 189.066 475.501 188.29 474.661 188.29Z" fill="#3A3768"/>
<path id="Vector_3" opacity="0.9" d="M276.584 144.998H276.325C275.486 144.998 274.805 145.774 274.805 146.731V161.459C274.805 162.416 275.486 163.192 276.325 163.192H276.584C277.424 163.192 278.105 162.416 278.105 161.459V146.731C278.105 145.774 277.424 144.998 276.584 144.998Z" fill="#3A3768"/>
<path id="Vector_4" opacity="0.9" d="M276.882 178.307H276.205C275.365 178.307 274.685 179.083 274.685 180.04V208.24C274.685 209.197 275.365 209.973 276.205 209.973H276.882C277.722 209.973 278.403 209.197 278.403 208.24V180.04C278.403 179.083 277.722 178.307 276.882 178.307Z" fill="#3A3768"/>
<path id="Vector_5" opacity="0.9" d="M276.763 221.054H276.265C275.426 221.054 274.745 221.83 274.745 222.787V251.26C274.745 252.217 275.426 252.993 276.265 252.993H276.763C277.603 252.993 278.284 252.217 278.284 251.26V222.787C278.284 221.83 277.603 221.054 276.763 221.054Z" fill="#3A3768"/>
<path id="Vector_6" opacity="0.9" d="M447.585 84.8734H302.564C288.267 84.8734 276.677 98.0853 276.677 114.383V511.284C276.677 527.582 288.267 540.794 302.564 540.794H447.585C461.883 540.794 473.473 527.582 473.473 511.284V114.383C473.473 98.0853 461.883 84.8734 447.585 84.8734Z" fill="#3A3768"/>
<path id="Vector_7" opacity="0.9" d="M380.997 98.4816H358.655C357.236 98.4816 356.086 99.7929 356.086 101.411V101.91C356.086 103.528 357.236 104.839 358.655 104.839H380.997C382.416 104.839 383.567 103.528 383.567 101.91V101.411C383.567 99.7929 382.416 98.4816 380.997 98.4816Z" fill="#E6E8EC"/>
<path id="Vector_8" opacity="0.9" d="M390.89 105.278C392.639 105.278 394.057 103.662 394.057 101.668C394.057 99.6741 392.639 98.0577 390.89 98.0577C389.141 98.0577 387.723 99.6741 387.723 101.668C387.723 103.662 389.141 105.278 390.89 105.278Z" fill="#E6E8EC"/>
</g>
<path id="Vector_9" d="M445.666 96.7408H423.158V99.8363C423.158 103.726 421.803 107.457 419.39 110.208C416.976 112.959 413.704 114.504 410.291 114.504H338.464C335.052 114.504 331.779 112.959 329.366 110.208C326.953 107.457 325.597 103.726 325.597 99.8363V96.7408H304.457C302.404 96.7408 300.372 97.2017 298.476 98.0971C296.581 98.9926 294.858 100.305 293.407 101.96C291.956 103.614 290.806 105.578 290.021 107.74C289.236 109.901 288.833 112.218 288.834 114.557V511.095C288.833 513.434 289.236 515.75 290.021 517.912C290.806 520.074 291.956 522.038 293.407 523.692C294.858 525.347 296.581 526.659 298.476 527.555C300.372 528.45 302.404 528.911 304.457 528.911H445.666C449.812 528.911 453.787 527.034 456.718 523.693C459.649 520.351 461.296 515.82 461.296 511.095V114.557C461.296 109.832 459.649 105.3 456.718 101.959C453.787 98.6179 449.812 96.7408 445.666 96.7408Z" fill="#0BF4A0"/>
<path id="Vector_10" opacity="0.3" d="M439.91 369.245H388.102V428.303H439.91V369.245Z" fill="#3A3768"/>
<path id="Vector_11" opacity="0.3" d="M363.555 291.29H311.747V350.347H363.555V291.29Z" fill="#3A3768"/>
<path id="Vector_12" opacity="0.3" d="M368.535 445.869H316.726V504.926H368.535V445.869Z" fill="#3A3768"/>
<path id="Vector_13" d="M356.975 146.284H305.167V205.342H356.975V146.284Z" fill="white"/>
<path id="Vector_14" d="M439.053 217.451H387.245V276.508H439.053V217.451Z" fill="white"/>
<g id="icons8-linkedin 1">
<g clip-path="url(#clip0)">
<path id="Vector_15" d="M425.416 342L387 381.624L421.761 425.415L460.177 385.791L425.416 342Z" fill="white"/>
<path id="Vector_16" d="M438.969 377.381C440.436 378.715 440.436 381.104 438.968 382.717L425.152 397.905C423.685 399.518 421.306 399.745 419.839 398.411L406.031 385.849C404.564 384.515 404.565 382.126 406.032 380.513L419.848 365.325C421.316 363.711 423.694 363.485 425.161 364.819L438.969 377.381Z" fill="#0288D1"/>
<path id="Vector_17" d="M413.468 386.209L416.125 383.288L425.154 391.502L422.497 394.423L413.468 386.209ZM413.726 383.791L413.711 383.808C412.918 384.679 411.815 384.706 411.077 384.035C410.324 383.349 410.279 382.246 411.086 381.359C411.894 380.47 412.966 380.445 413.734 381.114C414.471 381.784 414.55 382.886 413.726 383.791ZM435.25 380.403L432.593 383.323L427.76 378.927C426.593 377.866 425.146 377.856 424.1 379.005C423.303 379.882 423.409 380.846 423.719 381.548C423.828 381.801 424.365 382.244 424.625 382.48L429.405 386.828L426.748 389.749L417.719 381.536L420.376 378.615L421.765 379.879C421.556 378.919 421.359 377.535 422.894 375.847C424.795 373.757 427.416 373.277 430.084 375.704L435.25 380.403Z" fill="white"/>
</g>
</g>
<path id="facebook" d="M341.628 161H320.328C319.976 161 319.638 161.16 319.389 161.443C319.14 161.727 319 162.112 319 162.514V186.801C319 187.203 319.14 187.588 319.389 187.871C319.638 188.155 319.976 188.315 320.328 188.315H330.951V177.499H328.09V173.518H331.004V170.574C331.004 167.055 333.149 165.132 335.911 165.132C337.239 165.132 338.66 165.246 338.985 165.299V168.977H336.787C335.287 168.977 334.995 169.787 334.995 170.983V173.518H338.573L338.109 177.499H334.988V188.307H341.628C341.98 188.307 342.317 188.148 342.567 187.864C342.816 187.58 342.955 187.195 342.955 186.793V162.514C342.955 162.112 342.816 161.727 342.567 161.443C342.317 161.16 341.98 161 341.628 161Z" fill="#6C63FF"/>
<g id="instagram">
<path id="Vector_18" d="M373.561 283.297H321.753V342.354H373.561V283.297Z" fill="white"/>
<path id="Vector_19" d="M352.368 301.212C353.689 301.216 354.955 301.816 355.89 302.881C356.824 303.946 357.35 305.39 357.354 306.896V318.249C357.35 319.755 356.824 321.198 355.89 322.263C354.955 323.329 353.689 323.929 352.368 323.933H342.408C341.086 323.93 339.819 323.331 338.883 322.268C338.417 321.742 338.047 321.116 337.795 320.426C337.543 319.736 337.414 318.996 337.415 318.249V306.896C337.419 305.388 337.946 303.944 338.882 302.879C339.818 301.813 341.086 301.214 342.408 301.212H352.368ZM352.368 298.941H342.408C340.557 298.947 338.784 299.788 337.475 301.28C336.166 302.772 335.429 304.794 335.423 306.903V318.256C335.429 320.366 336.166 322.388 337.475 323.88C338.784 325.372 340.557 326.212 342.408 326.218H352.368C354.214 326.212 355.983 325.376 357.291 323.89C358.599 322.405 359.34 320.391 359.352 318.287V306.934C359.352 304.819 358.617 302.791 357.308 301.293C355.999 299.795 354.222 298.949 352.368 298.941V298.941Z" fill="#6C63FF"/>
<path id="Vector_20" d="M353.861 306.911C353.564 306.913 353.273 306.813 353.025 306.626C352.777 306.439 352.584 306.172 352.47 305.859C352.355 305.546 352.325 305.201 352.383 304.869C352.44 304.536 352.583 304.231 352.794 303.991C353.004 303.751 353.272 303.588 353.564 303.523C353.855 303.457 354.158 303.491 354.432 303.622C354.707 303.752 354.941 303.973 355.105 304.255C355.27 304.537 355.357 304.869 355.355 305.208C355.356 305.432 355.318 305.654 355.243 305.861C355.169 306.068 355.059 306.256 354.92 306.415C354.781 306.573 354.616 306.698 354.434 306.783C354.252 306.869 354.058 306.912 353.861 306.911V306.911ZM347.401 308.024C348.189 308.024 348.959 308.29 349.614 308.789C350.27 309.288 350.78 309.997 351.082 310.827C351.383 311.657 351.462 312.57 351.308 313.451C351.155 314.332 350.775 315.141 350.218 315.776C349.661 316.411 348.951 316.843 348.178 317.019C347.406 317.194 346.605 317.104 345.877 316.76C345.149 316.417 344.527 315.834 344.089 315.088C343.651 314.341 343.417 313.463 343.417 312.565C343.417 311.36 343.837 310.205 344.584 309.354C345.331 308.502 346.345 308.024 347.401 308.024ZM347.401 305.753C346.219 305.753 345.064 306.153 344.081 306.901C343.099 307.65 342.333 308.713 341.88 309.958C341.428 311.203 341.31 312.572 341.54 313.894C341.771 315.215 342.34 316.429 343.176 317.381C344.011 318.334 345.076 318.983 346.235 319.246C347.395 319.508 348.596 319.373 349.688 318.858C350.78 318.342 351.713 317.469 352.37 316.349C353.026 315.229 353.377 313.912 353.377 312.565C353.377 310.758 352.747 309.026 351.627 307.748C350.506 306.471 348.986 305.753 347.401 305.753V305.753Z" fill="#6C63FF"/>
</g>
<g id="man-p-1">
<path id="Vector_21" opacity="0.05" d="M443.548 576.494C443.548 576.494 434.127 578.5 436.803 579.87C439.098 580.904 441.462 581.724 443.874 582.322C443.874 582.322 446.908 582.504 443.548 576.494Z" fill="black"/>
<path id="Vector_22" d="M438.25 604.861L432.533 602.545C430.96 601.092 431.464 599.434 432.261 598.223C432.533 597.834 432.875 597.516 433.265 597.293C433.655 597.069 434.083 596.945 434.519 596.929C434.907 596.87 435.28 596.717 435.614 596.483C435.976 596.256 436.286 595.935 436.517 595.544C436.94 594.791 437.17 593.918 437.181 593.024C437.181 593.024 443.455 590.935 445.149 593.024C445.456 593.403 445.713 593.832 445.912 594.295C446.477 595.744 446.749 597.32 446.709 598.905C446.709 598.905 447.028 601.175 447.545 603.771C448.063 606.367 438.25 604.861 438.25 604.861Z" fill="#2D293D"/>
<path id="Vector_23" opacity="0.1" d="M442.081 538.523C442.081 538.523 435.442 540.256 435.216 543.306C434.99 546.356 442.081 538.523 442.081 538.523Z" fill="black"/>
<path id="Vector_24" opacity="0.1" d="M463.447 507.878C463.447 507.878 454.67 516.12 451.496 515.446C448.322 514.773 463.447 507.878 463.447 507.878Z" fill="black"/>
<path id="Vector_25" opacity="0.1" d="M464.091 521.358C464.091 521.358 464.456 525.588 462.179 527.185C462.179 527.185 466.249 526.459 464.091 521.358Z" fill="black"/>
<path id="Vector_26" opacity="0.05" d="M455.108 534.655L465.585 533.058C465.585 533.058 459.663 539.976 455.108 534.655Z" fill="black"/>
<path id="Vector_27" d="M474.841 582.095C474.4 582.968 474.024 583.882 473.719 584.827V592.025C472.125 595.052 463.812 594.03 462.697 592.388C461.581 590.746 460.38 586.469 461.655 585.743C462.929 585.016 463.972 581.368 463.972 581.368C463.972 581.368 462.644 581.732 460.459 578.818C458.275 575.904 458.946 569.44 459.344 567.889C459.742 566.337 459.344 561.153 459.344 561.153C459.344 561.153 459.424 557.512 458.786 556.324C458.149 555.136 456.794 548.4 456.794 548.4C456.794 548.4 456.794 546.129 455.679 544.941C454.563 543.753 453.84 539.113 453.84 539.113C453.186 537.953 452.904 536.57 453.043 535.2C453.282 532.93 451.682 530.462 451.682 530.462L448.966 520.623L446.41 513.244L444.976 517.52C444.976 517.52 444.571 527.541 444.896 529.63C445.222 531.719 445.693 537.274 445.693 537.274C445.693 537.274 444.093 540.922 444.817 544.018C445.54 547.113 445.295 553.758 445.295 553.758C445.295 553.758 446.012 567.51 445.374 568.608C444.737 569.705 444.817 572.392 444.817 572.392C444.817 572.392 448.09 580.407 447.048 581.474C446.005 582.541 446.33 585.576 446.33 585.576C446.33 585.576 448.568 585.576 447.612 586.666C446.656 587.756 445.932 593.478 445.932 593.478L436.258 594.871C435.385 593.42 434.659 591.861 434.094 590.223C432.819 586.855 434.333 587.196 435.621 586.855C436.909 586.515 436.092 585.584 434.572 584.487C433.051 583.389 433.908 580.937 433.908 580.937C433.908 580.937 436.225 576.471 435.428 576.108C434.632 575.745 434.545 569.463 434.545 569.463C434.545 569.463 432.952 561.993 433.35 559.995C433.748 557.997 432.069 553.183 432.069 553.183L431.511 547.446C429.808 544.183 429.195 540.33 429.785 536.593V527.73C429.785 527.73 427.547 510.61 427.222 501.997C427.023 496.457 427.076 488.896 427.142 484.173C427.182 481.532 427.222 479.776 427.222 479.776L461.747 475.681C461.803 477.647 462.014 479.602 462.378 481.524C462.73 483.681 463.281 486.482 464.144 489.978C466.621 499.992 465.107 507.462 465.107 507.462L464.788 520.116C464.788 520.116 467.823 528.585 467.185 531.469C466.792 533.201 466.569 534.978 466.521 536.767C466.521 536.767 473.314 555.257 472.596 560.631C471.879 566.004 474.841 574.436 474.841 574.436C474.841 574.436 475.637 580.49 474.841 582.095Z" fill="#464353"/>
<path id="Vector_28" opacity="0.1" d="M473.719 590.746V592.751C472.258 595.499 465.187 594.901 463.135 593.508C463.286 593.437 463.433 593.354 463.573 593.258C465.173 592.259 465.134 589.8 465.134 589.8C465.134 589.8 471.401 587.703 473.101 589.8C473.339 590.086 473.546 590.404 473.719 590.746V590.746Z" fill="black"/>
<path id="Vector_29" opacity="0.1" d="M445.155 593.024C445.462 593.403 445.719 593.832 445.919 594.295V594.295L436.517 595.537C436.941 594.784 437.17 593.911 437.181 593.016C437.181 593.016 443.442 590.935 445.155 593.024Z" fill="black"/>
<path id="Vector_30" d="M466.209 601.682L460.499 599.366C458.919 597.913 459.424 596.255 460.22 595.052C460.491 594.66 460.835 594.34 461.226 594.115C461.617 593.89 462.047 593.766 462.484 593.75C462.714 593.727 462.938 593.661 463.148 593.554C463.3 593.483 463.446 593.399 463.587 593.304C465.187 592.305 465.147 589.845 465.147 589.845C465.147 589.845 471.415 587.749 473.114 589.845C473.344 590.128 473.544 590.441 473.712 590.776C474.386 592.31 474.717 594.01 474.675 595.726C474.675 595.726 474.993 597.996 475.511 600.592C476.029 603.188 466.209 601.682 466.209 601.682Z" fill="#2D293D"/>
<g id="trousers" opacity="0.05">
<path id="Vector_31" opacity="0.05" d="M434.897 582.004C434.66 581.835 434.459 581.607 434.31 581.337C434.16 581.067 434.066 580.762 434.034 580.445L433.941 580.642C433.941 580.642 433.058 583.094 434.605 584.191C434.778 584.312 434.944 584.441 435.096 584.562C435.375 584.502 435.681 584.456 435.966 584.373C437.228 584.04 436.418 583.124 434.897 582.004Z" fill="black"/>
<path id="Vector_32" opacity="0.05" d="M447.041 581.308C447.3 581.035 447.286 580.331 447.134 579.431C446.748 580.239 446.562 581.152 446.596 582.072C446.691 581.782 446.843 581.52 447.041 581.308V581.308Z" fill="black"/>
<path id="Vector_33" opacity="0.05" d="M445.587 536.003C445.232 537.078 445.009 538.203 444.923 539.348C445.105 538.567 445.349 537.807 445.653 537.077C445.653 537.077 445.666 536.638 445.587 536.003Z" fill="black"/>
<path id="Vector_34" opacity="0.05" d="M467.172 531.219C467.235 530.891 467.264 530.556 467.258 530.22C467.139 530.901 467.059 531.537 466.999 532.09C467.052 531.802 467.106 531.514 467.172 531.219Z" fill="black"/>
<path id="Vector_35" opacity="0.05" d="M445.361 568.381C445.546 567.729 445.627 567.044 445.6 566.36C445.302 567.168 445.146 568.034 445.142 568.911C445.196 568.725 445.27 568.547 445.361 568.381V568.381Z" fill="black"/>
<path id="Vector_36" opacity="0.05" d="M447.34 585.546C446.846 587.375 446.48 589.245 446.244 591.139L436.584 592.418C435.707 590.97 434.981 589.41 434.419 587.771C434.316 587.509 434.225 587.242 434.147 586.969C433.569 587.272 433.337 587.953 434.1 589.996C434.661 591.634 435.387 593.191 436.265 594.636L445.919 593.357C445.919 593.357 446.642 587.62 447.599 586.545C448.07 585.962 447.771 585.69 447.34 585.546Z" fill="black"/>
<path id="Vector_37" opacity="0.05" d="M434.578 569.191C434.578 569.191 434.658 575.48 435.455 575.843C435.86 574.806 436.119 573.822 435.767 573.656C434.97 573.293 434.89 567.011 434.89 567.011C434.89 567.011 433.29 559.541 433.695 557.535C434.1 555.529 432.414 550.723 432.414 550.723L431.856 544.986C430.148 541.732 429.523 537.885 430.097 534.148V525.301C430.097 525.301 427.859 508.181 427.541 499.53C427.335 493.99 427.394 486.429 427.461 481.706C427.461 480.858 427.461 480.101 427.461 479.435H427.189C427.189 479.435 427.149 481.184 427.109 483.833C427.043 488.548 426.983 496.117 427.189 501.657C427.507 510.307 429.745 527.427 429.745 527.427V536.26C429.159 540.031 429.799 543.916 431.544 547.189L432.102 552.926C432.102 552.926 433.782 557.747 433.377 559.737C432.972 561.728 434.578 569.191 434.578 569.191Z" fill="black"/>
<path id="Vector_38" opacity="0.05" d="M463.016 589.959C462.231 588.663 461.709 587.184 461.489 585.629C460.499 586.644 461.635 590.587 462.697 592.146C463.759 593.705 472.125 594.787 473.725 591.775V590.042C471.561 592.486 464.078 591.51 463.016 589.959Z" fill="black"/>
<path id="Vector_39" opacity="0.05" d="M475.159 579.665C474.722 580.539 474.349 581.453 474.044 582.398V583.677C474.223 583.207 474.482 582.587 474.841 581.853C475.097 581.132 475.217 580.359 475.193 579.582L475.159 579.665Z" fill="black"/>
<path id="Vector_40" opacity="0.05" d="M463.507 581.103C463.812 580.403 464.076 579.68 464.297 578.939C464.297 578.939 462.969 579.302 460.778 576.388C459.211 574.269 459.125 570.265 459.344 567.647C458.946 569.198 458.302 575.662 460.459 578.575C461.874 580.49 462.929 580.982 463.507 581.103Z" fill="black"/>
<path id="Vector_41" opacity="0.05" d="M459.344 560.911C459.482 562.705 459.535 564.506 459.503 566.307C459.556 565.951 459.616 565.664 459.663 565.459C460.068 563.946 459.663 558.723 459.663 558.723C459.663 558.723 459.742 555.075 459.105 553.895C458.468 552.714 457.113 545.97 457.113 545.97C457.113 545.97 457.113 543.7 455.998 542.512C454.882 541.323 454.158 536.684 454.158 536.684C453.502 535.524 453.218 534.142 453.355 532.771C453.601 530.5 452.027 528.033 452.027 528.033L449.312 518.194L446.722 510.86L445.281 515.136C445.281 515.136 445.281 515.674 445.235 516.521L446.403 513.047L448.96 520.419L451.675 530.258C451.675 530.258 453.269 532.718 453.003 534.988C452.883 536.35 453.176 537.718 453.833 538.863C453.833 538.863 454.55 543.503 455.666 544.691C456.781 545.88 456.788 548.15 456.788 548.15C456.788 548.15 458.116 554.886 458.78 556.074C459.444 557.263 459.344 560.911 459.344 560.911Z" fill="black"/>
</g>
</g>
<g id="man-p-2">
<path id="Vector_42" opacity="0.1" d="M395.624 395.342L390.352 398.301L390.246 397.007C391.955 395.964 393.731 395.068 395.558 394.327L395.624 395.342Z" fill="black"/>
<path id="Vector_43" opacity="0.1" d="M466.349 401.056L461.96 402.221L461.867 401.465C462.336 400.727 462.993 400.173 463.749 399.877C464.505 399.582 465.322 399.56 466.09 399.815L466.349 401.056Z" fill="black"/>
<path id="Vector_44" opacity="0.1" d="M453.269 415.444C453.269 415.444 430.276 418.403 434.572 416.814C437.566 415.701 438.755 413.536 439.007 411.13C440.149 409.714 442.446 408.693 443.927 408.155C445.274 407.639 446.729 407.612 448.09 408.079C448.625 408.244 449.135 408.499 449.604 408.836C450.264 411.384 451.533 413.672 453.269 415.444Z" fill="black"/>
<path id="Vector_45" d="M443.044 406.255C448.295 406.255 452.552 401.403 452.552 395.417C452.552 389.432 448.295 384.579 443.044 384.579C437.793 384.579 433.536 389.432 433.536 395.417C433.536 401.403 437.793 406.255 443.044 406.255Z" fill="#FFCDD3"/>
<path id="Vector_46" opacity="0.1" d="M450.155 399.33C449.608 400.843 449.272 402.444 449.159 404.076C447.499 405.657 445.686 405.589 443.356 405.589C441.563 405.589 439.578 406.089 438.15 405.105C437.606 403.451 436.916 401.864 436.092 400.367C436.092 400.367 453.667 389.31 450.155 399.33Z" fill="black"/>
<path id="Vector_47" d="M453.269 415.444C453.269 415.444 430.276 418.403 434.572 416.814C437.566 415.701 438.755 413.536 439.007 411.13C439.122 409.064 438.83 406.995 438.15 405.075C437.606 403.421 436.916 401.833 436.092 400.337C436.092 400.337 453.667 389.317 450.155 399.338C449.608 400.851 449.272 402.452 449.159 404.083C449.051 405.7 449.202 407.326 449.604 408.882C450.27 411.413 451.539 413.684 453.269 415.444V415.444Z" fill="#FFCDD3"/>
<path id="Vector_48" d="M395.624 395.342L390.352 398.301L390.246 397.007L390.173 396.121C390.173 396.121 393.227 393.132 394.157 393.245C394.615 393.319 395.08 393.319 395.538 393.245L395.598 394.327L395.624 395.342Z" fill="#DCE6F2"/>
<path id="Vector_49" opacity="0.1" d="M395.146 393.722L390.459 396.598L390.034 395.584C390.698 394.956 393.041 392.783 393.812 392.882C394.182 392.925 394.556 392.925 394.927 392.882C395.073 393.412 395.146 393.722 395.146 393.722Z" fill="black"/>
<path id="Vector_50" d="M395.146 393.722L390.459 396.598L390.034 395.584C389.582 394.517 388.918 392.912 388.706 392.337C388.427 391.451 386.468 390.331 386.468 390.331C381.555 384.98 387.404 380.386 387.404 380.386C390.505 373.279 393.958 382.793 393.958 382.793C393.958 382.793 394.436 387.811 394.097 388.144C393.758 388.477 393.758 389.854 393.758 389.854C394.206 390.828 394.586 391.84 394.894 392.882C395.073 393.412 395.146 393.722 395.146 393.722Z" fill="#FFCDD3"/>
<path id="Vector_51" d="M466.349 401.056L461.96 402.221L461.867 401.465L461.615 399.459C461.854 399.095 462.155 398.788 462.499 398.557C462.844 398.326 463.225 398.175 463.621 398.113C464.016 398.051 464.419 398.08 464.805 398.196C465.192 398.313 465.554 398.516 465.871 398.793L466.09 399.815L466.349 401.056Z" fill="#DCE6F2"/>
<path id="Vector_52" opacity="0.1" d="M465.512 399.255L462.192 399.648L461.82 398.891C462.269 398.309 462.88 397.921 463.551 397.796C464.222 397.67 464.911 397.814 465.499 398.203L465.512 399.255Z" fill="black"/>
<path id="Vector_53" d="M466.05 393.359L465.452 396.689L465.485 398.203V399.292L462.166 399.686L461.794 398.929C461.13 397.506 459.669 394.608 459.205 394.161C458.587 393.571 457.491 384.322 458.806 384.874C459.613 385.227 460.276 385.91 460.665 386.789C460.665 386.789 467.232 387.576 466.05 393.359Z" fill="#FFCDD3"/>
</g>
<g id="man-p-3">
<path id="Vector_54" d="M471.242 479.072C471.242 479.072 441.922 484.809 438.775 483.712C435.627 482.614 419.473 483.81 419.473 483.81C412.203 489.358 415.244 481.169 415.244 481.169C415.244 481.169 414.58 476.885 415.483 473.426C416.069 470.887 416.469 468.298 416.678 465.683C416.678 465.683 416.519 460.219 417.395 458.947C418.272 457.676 419.314 448.563 419.314 448.563C419.314 448.563 420.117 442.372 420.038 440.995C419.958 439.617 420.277 435.811 420.277 435.811L421.313 429.43C415.337 428.522 397.105 415.769 397.105 415.769C396.228 411.493 389.436 401.472 389.436 401.472C389.338 400.63 389.151 399.804 388.878 399.012C388.4 397.559 395.591 394.645 395.591 394.645C395.591 394.645 400.942 402.115 402.058 404.114C403.173 406.112 407.011 409.85 407.011 409.85C407.608 409.782 408.21 409.873 408.77 410.115H408.863C410.148 410.692 411.351 411.48 412.436 412.454C414.237 412.403 415.986 413.155 417.309 414.551C417.309 414.551 420.589 414.006 421.147 414.641C421.704 415.277 424.466 414.641 424.466 414.641C424.466 414.641 427.268 407.905 429.114 409.858C430.96 411.811 438.748 411.728 438.748 411.728C439.79 410.153 442.313 409.026 443.9 408.443C445.248 407.926 446.702 407.9 448.063 408.367C448.655 408.555 449.213 408.863 449.71 409.275L454.437 414.573C454.437 414.573 455.765 412.568 455.639 412.114C455.513 411.659 457.239 411.296 457.239 411.296C457.239 411.296 459.556 410.479 460.433 410.199C461.309 409.919 462.119 411.016 462.186 411.107C461.831 409.813 461.696 408.454 461.787 407.103C461.86 405.91 461.516 404.732 460.831 403.826C463.653 396.046 469.967 402.63 469.967 402.63C469.967 402.63 470.684 406.906 470.047 408.549C469.409 410.191 470.711 413.65 470.525 414.558C470.339 415.466 470.844 417.018 470.844 418.743C470.674 420.956 470.245 423.132 469.569 425.215C469.084 426.668 465.253 429.945 465.253 429.945C465.253 429.945 465.014 435.137 463.334 438.142C461.654 441.146 462.67 451.439 462.67 451.439C462.67 451.439 464.264 459.455 466.262 462.035C468.261 464.616 471.242 479.072 471.242 479.072Z" fill="#3F3D56"/>
<path id="Vector_55" opacity="0.1" d="M462.365 481.487C453.461 483.084 440.786 485.172 438.775 484.476C437.108 483.893 431.783 483.954 427.142 484.136C427.182 481.494 427.222 479.738 427.222 479.738L461.747 475.644C461.798 477.608 462.005 479.564 462.365 481.487V481.487Z" fill="black"/>
<path id="Vector_56" opacity="0.1" d="M428.503 419.182C428.503 419.182 427.627 416.155 426.823 415.898C426.029 415.564 425.255 415.169 424.506 414.717L425.024 413.597C425.024 413.597 428.025 414.535 428.503 415.534C428.981 416.533 428.503 419.182 428.503 419.182Z" fill="black"/>
<path id="Vector_57" opacity="0.1" d="M412.469 412.53C412.309 413.446 405.205 414.263 405.205 414.263L408.797 410.153L408.89 410.191C410.177 410.767 411.382 411.555 412.469 412.53V412.53Z" fill="black"/>
<path id="Vector_58" d="M391.873 400.761C392.225 400.761 392.51 400.435 392.51 400.034C392.51 399.633 392.225 399.308 391.873 399.308C391.521 399.308 391.235 399.633 391.235 400.034C391.235 400.435 391.521 400.761 391.873 400.761Z" fill="#575988"/>
<path id="Vector_59" d="M392.689 402.221C393.042 402.221 393.327 401.896 393.327 401.495C393.327 401.094 393.042 400.768 392.689 400.768C392.337 400.768 392.052 401.094 392.052 401.495C392.052 401.896 392.337 402.221 392.689 402.221Z" fill="#575988"/>
<path id="Vector_60" d="M393.493 403.561C393.845 403.561 394.13 403.236 394.13 402.835C394.13 402.433 393.845 402.108 393.493 402.108C393.141 402.108 392.855 402.433 392.855 402.835C392.855 403.236 393.141 403.561 393.493 403.561Z" fill="#575988"/>
<path id="Vector_61" d="M394.329 405.022C394.682 405.022 394.967 404.696 394.967 404.295C394.967 403.894 394.682 403.569 394.329 403.569C393.977 403.569 393.692 403.894 393.692 404.295C393.692 404.696 393.977 405.022 394.329 405.022Z" fill="#575988"/>
<path id="Vector_62" d="M469.635 404.802C469.921 404.802 470.153 404.538 470.153 404.212C470.153 403.886 469.921 403.622 469.635 403.622C469.349 403.622 469.117 403.886 469.117 404.212C469.117 404.538 469.349 404.802 469.635 404.802Z" fill="#575988"/>
<path id="Vector_63" d="M469.715 406.15C470.001 406.15 470.233 405.885 470.233 405.559C470.233 405.233 470.001 404.969 469.715 404.969C469.429 404.969 469.197 405.233 469.197 405.559C469.197 405.885 469.429 406.15 469.715 406.15Z" fill="#575988"/>
<path id="Vector_64" d="M469.781 407.489C470.067 407.489 470.299 407.225 470.299 406.899C470.299 406.573 470.067 406.308 469.781 406.308C469.495 406.308 469.263 406.573 469.263 406.899C469.263 407.225 469.495 407.489 469.781 407.489Z" fill="#575988"/>
<path id="Vector_65" opacity="0.1" d="M428.543 443.856C428.47 443.75 446.47 469.672 460.459 454.694C460.459 454.694 438.363 458.107 428.543 443.856Z" fill="black"/>
<path id="Vector_66" opacity="0.1" d="M418.199 457.335C418.199 457.335 428.975 457.668 430.103 461.203V464.881C429.798 465.073 429.456 465.173 429.107 465.173C428.759 465.173 428.417 465.073 428.111 464.881C427.023 464.215 420.509 460.439 418.212 462.255L418.199 457.335Z" fill="black"/>
<path id="Vector_67" d="M418.398 457.335C418.398 457.335 428.702 457.653 429.785 461.021V464.533C429.491 464.717 429.161 464.814 428.825 464.814C428.49 464.814 428.16 464.717 427.866 464.533C426.823 463.89 420.562 460.295 418.398 462.028V457.335Z" fill="#3F3D56"/>
<path id="Vector_68" opacity="0.1" d="M424.081 430.634C425.182 433.536 426.584 436.278 428.258 438.8C430.08 441.593 432.292 444.027 434.804 446.005C434.804 446.005 424.261 432.352 424.081 430.634Z" fill="black"/>
<path id="Vector_69" opacity="0.1" d="M420.556 416.39C420.556 416.39 422.355 425.237 426.983 428.242L420.556 416.39Z" fill="black"/>
<path id="Vector_70" opacity="0.1" d="M461.867 406.202C461.867 406.202 468.46 406.202 469.914 409.033Z" fill="black"/>
<path id="Vector_71" opacity="0.1" d="M452.306 404.182C451.944 404.634 451.487 404.972 450.978 405.166C448.322 406.445 445.281 406.293 442.386 406.089C442.076 406.096 441.769 406.018 441.49 405.862C441.087 405.502 440.82 404.979 440.747 404.401C440.182 402.062 439.664 399.928 438.323 397.991C438.066 397.541 437.682 397.204 437.234 397.037C436.814 396.989 436.39 397.035 435.986 397.173C435.783 397.239 435.568 397.245 435.362 397.189C435.156 397.134 434.966 397.019 434.811 396.855C434.647 396.572 434.574 396.232 434.605 395.894C434.605 394.918 434.798 393.82 434.26 393.063C433.961 392.64 433.49 392.413 433.177 391.996C432.978 391.685 432.856 391.318 432.824 390.935C432.792 390.551 432.853 390.165 432.998 389.817C432.487 390.74 432.268 391.921 432.859 392.723C433.171 393.139 433.642 393.366 433.941 393.79C434.479 394.547 434.293 395.644 434.28 396.621C434.254 396.959 434.329 397.298 434.492 397.582C434.647 397.746 434.837 397.861 435.043 397.917C435.249 397.973 435.464 397.967 435.667 397.9C436.071 397.761 436.496 397.715 436.916 397.764C437.362 397.934 437.745 398.269 438.004 398.717C439.332 400.662 439.863 402.789 440.428 405.128C440.502 405.706 440.765 406.231 441.165 406.596C441.445 406.747 441.751 406.824 442.061 406.823C444.963 407.027 447.977 407.171 450.693 405.9C451.2 405.699 451.656 405.358 452.02 404.908C452.201 404.645 452.341 404.348 452.432 404.03C452.392 404.083 452.366 404.144 452.306 404.182Z" fill="black"/>
<path id="Vector_72" d="M440.474 405.234C440.548 405.812 440.812 406.337 441.211 406.702C441.492 406.853 441.798 406.931 442.108 406.929C445.009 407.133 448.024 407.277 450.739 406.006C451.248 405.807 451.704 405.466 452.067 405.014C452.449 404.287 452.689 403.473 452.771 402.63C453.149 401.01 453.953 399.603 454.53 398.028C455.5 395.423 455.824 392.564 455.466 389.764C455.395 388.903 455.147 388.074 454.743 387.342C453.973 386.093 452.572 385.586 451.556 384.587C450.54 383.588 449.883 382.067 448.701 381.317C447.574 380.746 446.313 380.618 445.115 380.954C442.745 381.417 440.474 382.391 438.423 383.822C437.759 384.307 436.975 384.859 436.185 384.693C435.507 384.445 434.925 383.937 434.539 383.255C433.973 384.739 433.73 386.356 433.828 387.97C433.861 388.206 433.861 388.446 433.828 388.681C433.726 388.965 433.575 389.223 433.383 389.438C432.666 390.384 432.221 391.883 432.925 392.836C433.237 393.253 433.709 393.48 434.007 393.904C434.545 394.66 434.359 395.758 434.346 396.734C434.32 397.073 434.395 397.411 434.559 397.695C434.714 397.859 434.904 397.974 435.11 398.029C435.315 398.085 435.53 398.08 435.734 398.013C436.138 397.875 436.562 397.829 436.982 397.877C437.428 398.047 437.812 398.383 438.071 398.831C439.385 400.768 439.91 402.895 440.474 405.234Z" fill="#2D293D"/>
<path id="Vector_73" opacity="0.1" d="M464.855 411.349C464.735 411.349 468.586 414.149 469.635 415.444C469.635 415.444 467.132 411.167 464.855 411.349Z" fill="black"/>
<path id="Vector_74" opacity="0.1" d="M417.78 417.283C417.734 417.116 416.18 424.276 423.756 428.242C423.756 428.242 420.556 427.001 417.78 417.283Z" fill="black"/>
<path id="Vector_75" opacity="0.1" d="M438.775 411.803C438.775 411.803 450.653 413.597 451.722 411.561Z" fill="black"/>
</g>
<g id="whatsapp">
<path id="Vector_76" d="M400.448 260.575L402.356 253.404C401.179 251.305 400.56 248.924 400.561 246.485C400.564 238.854 406.596 232.646 414.01 232.646C417.608 232.647 420.983 234.089 423.523 236.704C426.061 239.321 427.46 242.797 427.458 246.496C427.455 254.126 421.422 260.335 414.01 260.335C414.009 260.335 414.01 260.335 414.01 260.335H414.004C411.754 260.334 409.542 259.753 407.578 258.65L400.448 260.575Z" fill="white"/>
<path id="Vector_77" d="M400.448 260.94C400.355 260.94 400.264 260.902 400.197 260.832C400.108 260.739 400.073 260.604 400.107 260.48L401.976 253.453C400.817 251.334 400.206 248.928 400.207 246.485C400.21 238.653 406.402 232.281 414.01 232.281C417.7 232.283 421.168 233.762 423.774 236.447C426.38 239.132 427.814 242.701 427.812 246.496C427.81 254.328 421.617 260.7 414.01 260.7C411.751 260.699 409.516 260.125 407.533 259.039L400.538 260.927C400.508 260.936 400.479 260.94 400.448 260.94Z" fill="white"/>
<path id="Vector_78" d="M414.01 232.646C417.608 232.647 420.983 234.089 423.523 236.704C426.062 239.321 427.46 242.797 427.458 246.496C427.456 254.126 421.422 260.335 414.01 260.335H414.004C411.754 260.334 409.542 259.753 407.578 258.65L400.448 260.575L402.356 253.404C401.179 251.305 400.56 248.924 400.561 246.485C400.564 238.854 406.596 232.646 414.01 232.646ZM414.01 231.917C406.207 231.917 399.856 238.451 399.852 246.485C399.852 248.94 400.454 251.359 401.596 253.501L399.765 260.383C399.698 260.635 399.766 260.903 399.945 261.088C400.079 261.228 400.261 261.305 400.448 261.305C400.508 261.305 400.569 261.297 400.628 261.281L407.49 259.429C409.493 260.499 411.738 261.064 414.004 261.065C421.813 261.065 428.164 254.53 428.167 246.496C428.169 242.603 426.698 238.943 424.025 236.19C421.351 233.436 417.795 231.918 414.01 231.917Z" fill="#CFD8DC"/>
<path id="Vector_79" d="M421.916 238.357C419.805 236.182 417 234.984 414.013 234.984C407.848 234.984 402.834 240.143 402.831 246.485C402.83 248.659 403.421 250.775 404.54 252.607L404.807 253.043L403.677 257.287L407.908 256.145L408.316 256.395C410.032 257.443 412 257.998 414.006 257.998H414.01C420.171 257.998 425.185 252.838 425.187 246.495C425.188 243.421 424.027 240.531 421.916 238.357Z" fill="#40C351"/>
<path id="Vector_80" fill-rule="evenodd" clip-rule="evenodd" d="M410.648 240.699C410.397 240.123 410.132 240.112 409.892 240.102C409.695 240.093 409.472 240.094 409.248 240.094C409.024 240.094 408.66 240.18 408.352 240.527C408.044 240.873 407.175 241.709 407.175 243.411C407.175 245.113 408.379 246.758 408.547 246.989C408.715 247.219 410.872 250.823 414.288 252.21C417.126 253.362 417.704 253.133 418.32 253.076C418.936 253.018 420.308 252.239 420.588 251.431C420.868 250.623 420.868 249.931 420.784 249.787C420.7 249.643 420.476 249.557 420.141 249.383C419.805 249.21 418.152 248.373 417.844 248.258C417.536 248.143 417.312 248.085 417.088 248.432C416.864 248.777 416.22 249.557 416.024 249.787C415.828 250.018 415.631 250.047 415.296 249.874C414.96 249.7 413.877 249.336 412.593 248.157C411.595 247.241 410.92 246.108 410.724 245.762C410.528 245.416 410.703 245.229 410.871 245.056C411.022 244.901 411.207 244.652 411.376 244.45C411.544 244.248 411.599 244.104 411.711 243.874C411.823 243.642 411.767 243.44 411.683 243.268C411.6 243.094 410.947 241.383 410.648 240.699Z" fill="white"/>
</g>
</g>
<defs>
<clipPath id="clip0">
<rect x="397" y="384.04" width="37.9055" height="34.4629" transform="rotate(-47.7081 397 384.04)" fill="white"/>
</clipPath>
</defs>
</svg>
